PathFileType	4	(X/Y/Z)	s09c0302.trc
DataRate	CameraRate	NumFrames	NumMarkers	Units	OrigDataRate	OrigDataStartFrame	OrigNumFrames
200	200	4	50	mm	200	1500	2000
Frame#	Time	racr			lacr			c7			jug			rlel			rdr			llel			ldr			s2			lic			ric			lasi			rasi			rpsi			lpsi			rgt			lgt			rth1			rth2			rth3			rth4			rlfc			rmfc			rsh1			rsh2			rsh3			rsh4			rlmal			rmmal			rcal			rtoe			rmt5			lth1			lth2			lth4			lth3			llfc			lmfc			llmal			lmmal			lcal			lmt5			lsh1			lsh2			lsh3			lsh4			ltoe			SBIKE			LBIKE			RBIKE			
		X1	Y1	Z1	X2	Y2	Z2	X3	Y3	Z3	X4	Y4	Z4	X5	Y5	Z5	X6	Y6	Z6	X7	Y7	Z7	X8	Y8	Z8	X9	Y9	Z9	X10	Y10	Z10	X11	Y11	Z11	X12	Y12	Z12	X13	Y13	Z13	X14	Y14	Z14	X15	Y15	Z15	X16	Y16	Z16	X17	Y17	Z17	X18	Y18	Z18	X19	Y19	Z19	X20	Y20	Z20	X21	Y21	Z21	X22	Y22	Z22	X23	Y23	Z23	X24	Y24	Z24	X25	Y25	Z25	X26	Y26	Z26	X27	Y27	Z27	X28	Y28	Z28	X29	Y29	Z29	X30	Y30	Z30	X31	Y31	Z31	X32	Y32	Z32	X33	Y33	Z33	X34	Y34	Z34	X35	Y35	Z35	X36	Y36	Z36	X37	Y37	Z37	X38	Y38	Z38	X39	Y39	Z39	X40	Y40	Z40	X41	Y41	Z41	X42	Y42	Z42	X43	Y43	Z43	X44	Y44	Z44	X45	Y45	Z45	X46	Y46	Z46	X47	Y47	Z47	X48	Y48	Z48	X49	Y49	Z49	X50	Y50	Z50	
1500	7.5000	747.888196	1353.757783	-132.697326	671.310095	1321.362365	-471.744182	708.402541	1380.807568	-286.200635	711.525722	1248.109836	-292.961380	664.520467	1110.602806	-45.522697	725.710369	866.565902	-64.092422	536.823354	1066.509681	-499.534115	703.344203	887.164411	-436.122869	239.605429	1186.849365	-199.128045	350.388481	1189.883470	-369.252159	400.228160	1138.960496	-82.219469	384.138199	1120.700898	-359.355126	422.828949	1081.929242	-115.417446	283.418533	1203.042253	-142.055387	263.347341	1226.255106	-245.420825	333.872495	1001.683817	-46.418405	307.656197	1083.134195	-419.049854	362.928974	875.710734	-61.135852	397.701270	795.375851	-71.885085	381.048041	708.600135	-79.415286	425.909582	799.386698	-94.883658	374.539855	612.280768	-104.726207	345.094826	596.390837	-200.720751	308.293524	535.117603	-67.626085	289.985920	447.792724	-77.788540	232.069872	382.490381	-73.352744	313.669963	438.642393	-108.252564	179.960770	293.736907	-69.978375	186.345071	300.861469	-146.530171	102.035457	311.961894	-111.356546	288.140959	123.699106	-131.512103	221.637624	166.898588	-61.328662	419.159190	996.242591	-427.851380	500.031867	967.721237	-423.836245	520.965611	995.210884	-407.980830	558.310304	899.871213	-430.249734	621.320342	818.631915	-418.456794	638.021699	799.235004	-317.764465	343.752990	571.000534	-412.227581	360.909984	576.977309	-338.200785	257.956065	567.717828	-372.608862	398.429185	463.565528	-432.715241	546.861694	751.526256	-434.506464	497.054114	680.361536	-423.217877	415.954681	644.209330	-419.626234	517.238462	661.498703	-395.754524	489.900134	445.376262	-363.412598	-64.205489	852.005885	-239.960873	21.204339	84.616160	-442.103592	21.162921	84.098255	-43.838241	
1501	7.5050	748.271664	1354.102100	-135.723868	669.183582	1321.932553	-473.851431	707.838680	1381.732319	-289.030679	710.378856	1249.045559	-295.697220	665.815904	1111.300319	-47.477154	725.972780	866.569128	-64.221638	534.198239	1066.301162	-498.390235	702.885058	887.448986	-436.060715	239.894184	1188.346277	-198.390764	349.489641	1191.345381	-369.052771	400.742674	1141.304392	-82.209488	383.508256	1122.003267	-359.404751	423.382170	1084.146845	-115.136364	283.912746	1204.802249	-141.459149	263.481605	1227.465155	-244.833045	335.336247	1003.463238	-45.439374	306.113949	1083.811373	-418.074918	366.124351	877.212231	-60.871666	401.748013	797.382994	-72.034848	386.301935	710.445896	-79.567026	430.029231	801.859270	-94.843360	379.254551	613.747684	-104.852827	349.783435	597.962807	-200.190079	310.522756	538.104988	-67.141670	289.627655	451.479323	-77.243436	229.576781	387.830923	-73.015992	312.001943	441.155663	-109.219783	174.926506	300.507268	-69.675059	182.381389	307.012876	-146.388474	97.561723	320.304882	-111.330847	279.010811	128.072256	-131.259858	213.556975	172.876993	-61.179842	416.174830	994.282258	-426.474645	495.213593	965.088234	-425.418773	518.647193	992.617529	-408.445334	554.543253	896.743460	-429.525292	618.733743	816.220837	-417.882725	635.754502	797.463583	-317.011267	347.075298	562.099993	-411.762653	364.574361	568.933698	-337.687218	261.296688	555.820680	-371.953888	405.211237	457.402257	-433.029665	545.955635	747.260073	-433.933150	497.655376	675.132963	-422.739979	417.368791	637.112791	-419.117023	518.263410	656.765478	-395.056491	497.692851	442.759166	-364.189995	-64.232265	851.993882	-240.002304	21.193252	84.473531	-442.130809	21.226687	84.074660	-43.793079	
1502	7.5100	748.439742	1354.778033	-138.469449	667.425889	1322.104721	-475.937333	707.261513	1382.730094	-292.051096	709.246805	1250.042241	-298.313569	667.271675	1112.078879	-49.234158	726.192546	866.641804	-64.378951	532.181191	1066.041224	-497.207419	702.427798	887.674026	-436.084444	239.428350	1190.419378	-196.944444	348.785199	1192.414024	-369.187233	401.161698	1143.861442	-82.292318	383.151704	1123.073378	-359.286857	423.943215	1086.549812	-114.780144	284.262031	1206.637123	-141.244290	263.736193	1227.690533	-245.469938	336.786515	1005.430514	-44.515627	304.674188	1084.041018	-417.159557	369.485335	878.882891	-60.543654	406.089237	799.591665	-72.213447	391.758758	712.493574	-79.889066	434.305279	804.608046	-94.894745	384.581381	615.434326	-104.954565	354.870622	599.655572	-199.832404	313.294473	541.240130	-66.761593	289.592989	455.456200	-77.064105	227.628180	393.662449	-72.747133	311.584907	444.499432	-108.823633	170.513584	307.718411	-69.214581	179.084349	312.566461	-145.725240	93.428782	329.636528	-111.100671	270.300219	132.925220	-131.060149	205.895970	179.371229	-61.027836	413.075551	991.497861	-424.683561	492.624735	961.513779	-424.412550	516.068655	989.259515	-409.114747	550.328829	892.502007	-428.721979	615.664358	812.922455	-417.022533	632.901646	794.479558	-316.591705	349.924032	552.639388	-411.099643	367.163005	560.045845	-336.899364	264.306849	543.257551	-370.933459	411.446947	450.522727	-433.360945	544.550740	742.301711	-433.552289	497.795585	668.939902	-422.266347	418.597116	629.027747	-418.424036	518.662146	651.172170	-394.749467	504.959675	439.534074	-365.228213	-64.269371	851.991157	-240.018450	21.212594	84.438344	-442.124821	21.253587	84.084900	-43.761310	
1503	7.5150	748.454223	1355.617165	-141.068506	665.967104	1321.950866	-477.861850	706.725385	1383.958736	-295.108181	708.169332	1251.256357	-300.568199	668.434286	1112.899916	-50.691620	727.292938	867.100376	-63.795987	530.202258	1065.834252	-495.879291	701.913350	887.823574	-436.205041	241.040109	1190.971843	-197.957577	348.332695	1193.101538	-369.632587	401.560625	1146.519147	-82.396677	382.765989	1123.835091	-359.138994	423.721145	1089.010489	-114.937133	284.567082	1208.384079	-141.341472	263.742652	1229.057130	-245.361429	338.269734	1007.530704	-43.675319	303.318387	1083.751343	-416.157703	372.917195	880.580160	-60.191117	410.583600	801.960358	-72.347201	397.545502	714.561599	-80.302069	438.649575	807.512670	-95.011147	390.273123	617.149533	-105.030961	360.308746	601.576194	-199.595116	316.573524	544.576417	-66.542493	289.999533	459.651946	-77.011398	226.122387	399.869259	-72.549621	311.630095	448.068855	-108.725031	166.435989	315.284069	-68.995482	175.358866	319.837207	-145.815836	89.935074	339.065179	-110.937071	261.703576	138.253547	-130.901853	198.760927	186.421786	-60.819234	409.910862	988.344982	-423.399069	489.437215	957.660036	-423.929440	512.754131	985.396084	-410.505175	545.961903	887.691884	-428.146628	611.958614	808.709057	-416.529083	629.818100	790.845548	-316.206262	352.380767	542.531499	-410.338567	370.283956	550.548133	-336.285467	267.238939	529.970669	-369.661866	417.228250	442.994500	-433.736561	542.724278	736.178187	-432.695135	497.526960	662.052172	-421.804438	419.294763	620.289068	-417.810030	518.831953	644.955005	-394.173919	511.484989	435.734937	-366.270086	-64.315881	851.958728	-240.051528	21.210505	84.372720	-442.117003	21.271346	84.088470	-43.745824	
